<?xml version="1.0" encoding="utf-8"?>
<!-- Generator: Adobe Illustrator 24.2.2, SVG Export Plug-In . SVG Version: 6.00 Build 0)  -->
<svg version="1.1" id="Layer_1" xmlns="http://www.w3.org/2000/svg" xmlns:xlink="http://www.w3.org/1999/xlink" x="0px" y="0px"
	 viewBox="0 0 225 225" style="enable-background:new 0 0 225 225;" xml:space="preserve">
<style type="text/css">
	.st0{fill:#00693E;}
</style>
<g transform="translate(0.000000,225.000000) scale(0.100000,-0.100000)">
	<path class="st0" d="M370,1188V440h750h750v748v747h-750H370V1188z M1850,1188V460h-730H390v728v727h730h730V1188z"/>
	<path class="st0" d="M1277,1856c-90-33-135-105-122-193c10-70,57-115,168-158c131-51,157-77,157-156c0-59-32-95-95-104
		c-85-13-166,47-201,149c-12,34-21,46-36,46c-18,0-20-4-14-37c3-21,6-71,6-110c0-66,2-73,20-73c10,0,23,7,28,15c7,14,11,14,38,0
		c83-41,197-36,266,11c63,44,96,146,69,216c-16,43-73,86-155,119c-109,43-141,63-159,101c-30,62,3,131,70,144c75,14,141-34,171-124
		c13-40,24-58,38-60c18-3,19,3,16,106c-3,90-6,109-19,109c-8,0-20-8-25-17c-10-16-14-15-50,2C1395,1868,1324,1874,1277,1856z
		 M1519,1763l-1-58l-19,43c-11,23-25,42-32,42c-12,0,30,27,46,29C1517,1820,1520,1794,1519,1763z M1215,1736c0-40,6-62,21-83
		c22-30,108-82,137-83c9,0,17-5,17-11c0-5,4-8,9-4c5,3,15,0,23-7c7-7,19-14,26-16c66-14,112-102,90-174c-15-51-34-49-33,5
		c0,23-4,48-10,56c-20,26-79,81-88,81c-5,0-23,6-40,14c-18,8-52,21-77,31c-54,20-72,34-63,48c3,5,1,7-4,4c-18-11-43,40-43,88
		c0,36,21,105,33,105C1214,1790,1215,1766,1215,1736z M1227,1277c22-13,15-29-7-17c-11,6-28,10-38,8c-14-3-17,6-20,52l-3,55l27-45
		C1201,1305,1219,1281,1227,1277z M1520,1306c0-2-8-10-17-17c-16-13-17-12-4,4S1520,1314,1520,1306z"/>
	<path class="st0" d="M700,1840c0-10,16-20,45-28c57-15,57-15,52-306c-3-209-5-230-22-242c-10-8-31-14-47-14c-18,0-28-5-28-15
		c0-13,23-15,145-15c116,0,145,3,145,14c0,8-15,16-36,19c-66,11-64,4-64,281c0,138,4,257,9,264c4,8,27,16,50,19c29,4,41,10,39,20
		c-2,11-31,15-146,16C720,1855,700,1853,700,1840z M877,1808c-10-18-14-84-16-276l-3-252l24-20l23-19l-59-1c-57,0-59,1-42,19
		c15,17,17,46,16,272c0,207-3,257-15,276c-15,23-15,23,35,23S890,1830,877,1808z"/>
	<path class="st0" d="M1398,1171c-77-25-138-97-138-162c0-87,51-146,165-190c113-44,133-55,150-89c32-62,13-139-40-165
		c-93-43-200,18-241,139c-12,35-21,46-36,46c-19,0-20-4-14-52c3-29,6-79,6-110c0-52,2-58,20-58c11,0,23,6,26,14c5,12,10,12,39,0
		c113-47,205-38,279,27c91,80,87,212-7,276c-18,12-68,36-112,54c-103,41-132,62-143,103c-14,48-4,83,31,112c27,22,38,25,80,21
		c63-6,111-51,136-128c14-42,23-55,41-57c18-3,21,0,16,13c-3,9-6,58-6,109c0,78-2,93-16,93c-9,0-21-8-26-17c-10-15-14-15-50,3
		C1513,1176,1438,1184,1398,1171z M1621,1098c0-13,2-36,4-53l3-30l-14,32c-7,17-18,34-24,38c-8,5-8,11,1,21
		C1608,1127,1620,1123,1621,1098z M1322,1074c-12-21,8-97,33-124c18-20,133-80,162-84c8-1,19-9,24-17s9-10,9-6c0,13,60-26,81-52
		c22-27,26-66,7-55c-10,6-10,4,0-7c15-16,16-60,0-94c-18-39-23-30-22,39c0,36-3,63-7,61c-4-3-12,2-19,10s-9,15-4,15s-11,14-36,30
		s-53,30-62,30s-20,5-23,10c-3,6-16,10-28,10c-18,0-19,2-7,11c12,8,10,9-8,4c-32-9-112,45-112,75c0,5-4,10-10,10c-12,0-14,103-2,114
		c4,4,8,12,8,17c3,17,4,19,14,19C1327,1090,1328,1084,1322,1074z M1285,650c-3-5,1-12,9-17c7-4,26-23,42-42c26-32,27-33,5-21
		c-17,8-30,9-45,2c-21-9-22-8-24,44c0,33,3,52,9,49C1286,661,1288,655,1285,650z"/>
	<path class="st0" d="M560,1078c0-71,3-88,15-88c8,0,22,17,30,38c9,20,30,52,47,70c28,28,38,32,85,32h53V861c0-296,2-287-64-298
		c-21-3-36-11-36-19c0-11,30-14,150-14c123,0,150,3,150,14c0,9-15,17-39,21c-22,4-45,12-51,20c-7,8-11,107-13,279l-2,266h54
		c48,0,57-3,87-35c18-19,38-51,45-70c8-22,20-35,31-35c16,0,18,10,18,88v87H840H560V1078z M650,1129c0-5-4-7-10-4c-5,3-10-1-10-9
		c0-9-4-16-9-16s-13-9-16-20s-11-20-16-20c-8,0-6,28,7,68C600,1143,650,1144,650,1129z M865,1132c-6-4-10-107-10-274
		c0-146,2-265,4-262c5,4,30-27,31-38c0-5-22-8-50-8c-27,0-50,2-50,4s7,17,15,32c12,24,15,78,15,292v262h28
		C863,1140,871,1136,865,1132z M1088,1100l-2-41l-17,23c-10,12-15,27-12,32s1,6-4,3c-6-4-16-1-21,6c-9,10-3,13,24,15l35,3L1088,1100
		z"/>
</g>
</svg>
